<svg id="svg" version="1.1" xmlns="http://www.w3.org/2000/svg" xmlns:xlink="http://www.w3.org/1999/xlink" viewBox="0, 0, 400,400"><g id="svgg"><path id="path0" d="M191.600 62.630 C 156.098 66.532,127.455 86.101,112.602 116.600 C 87.118 168.928,113.207 231.501,168.139 249.801 C 239.762 273.662,309.571 214.526,296.173 141.340 C 288.711 100.575,257.195 70.291,215.000 63.338 C 211.593 62.776,194.870 62.271,191.600 62.630 M291.059 240.633 C 287.254 241.555,282.630 243.983,275.400 248.858 C 222.800 284.324,177.936 284.204,124.600 248.455 C 113.891 241.277,110.483 240.125,101.099 240.517 C 85.632 241.161,69.995 247.978,58.288 259.178 C 33.850 282.560,19.692 332.307,21.625 388.000 C 21.797 392.950,21.951 397.675,21.969 398.500 L 22.000 400.000 199.955 400.000 L 377.910 400.000 378.356 396.100 C 381.163 371.544,378.973 345.134,371.733 316.229 C 361.251 274.386,342.955 251.526,313.000 242.847 C 304.059 240.256,295.982 239.442,291.059 240.633 " stroke="none" fill="#343434" fill-rule="evenodd"></path><path id="path1" d="M0.000 200.000 L 0.000 400.000 10.578 400.000 L 21.156 400.000 20.920 385.300 C 19.786 314.902,40.049 263.303,75.400 246.569 C 94.978 237.302,110.003 237.394,123.400 246.864 C 157.628 271.060,188.451 278.841,223.103 272.033 C 239.061 268.897,255.789 261.279,274.958 248.416 C 289.915 238.380,294.562 237.500,310.844 241.618 C 330.143 246.500,343.959 256.669,355.754 274.670 C 372.309 299.937,382.945 352.629,379.397 391.800 C 379.078 395.320,378.813 398.605,378.809 399.100 L 378.800 400.000 389.400 400.000 L 400.000 400.000 400.000 200.000 L 400.000 0.000 200.000 0.000 L 0.000 0.000 0.000 200.000 M210.600 62.194 C 293.479 71.535,328.320 171.268,268.739 228.613 C 214.954 280.378,123.343 254.631,105.019 182.600 C 88.434 117.403,143.479 54.629,210.600 62.194 " stroke="none" fill="#fbfbfb" fill-rule="evenodd"></path><path id="path2" d="M298.120 156.800 C 298.120 158.010,298.195 158.505,298.287 157.900 C 298.378 157.295,298.378 156.305,298.287 155.700 C 298.195 155.095,298.120 155.590,298.120 156.800 M298.093 162.000 C 298.093 162.770,298.175 163.085,298.276 162.700 C 298.376 162.315,298.376 161.685,298.276 161.300 C 298.175 160.915,298.093 161.230,298.093 162.000 M202.105 255.487 C 202.714 255.579,203.614 255.577,204.105 255.482 C 204.597 255.387,204.100 255.311,203.000 255.314 C 201.900 255.317,201.497 255.395,202.105 255.487 M21.293 366.400 C 21.293 367.170,21.375 367.485,21.476 367.100 C 21.576 366.715,21.576 366.085,21.476 365.700 C 21.375 365.315,21.293 365.630,21.293 366.400 M379.701 368.200 C 379.705 369.080,379.787 369.393,379.883 368.895 C 379.979 368.398,379.975 367.678,379.875 367.295 C 379.775 366.913,379.696 367.320,379.701 368.200 M20.937 378.600 C 20.939 380.360,21.009 381.030,21.093 380.089 C 21.178 379.149,21.177 377.709,21.091 376.889 C 21.005 376.070,20.936 376.840,20.937 378.600 M379.701 381.400 C 379.705 382.280,379.787 382.593,379.883 382.095 C 379.979 381.598,379.975 380.878,379.875 380.495 C 379.775 380.113,379.696 380.520,379.701 381.400 " stroke="none" fill="#949494" fill-rule="evenodd"></path><path id="path3" d="M197.717 62.297 C 199.211 62.374,201.551 62.374,202.917 62.296 C 204.282 62.218,203.060 62.155,200.200 62.155 C 197.340 62.156,196.222 62.220,197.717 62.297 M189.700 62.687 C 190.305 62.778,191.295 62.778,191.900 62.687 C 192.505 62.595,192.010 62.520,190.800 62.520 C 189.590 62.520,189.095 62.595,189.700 62.687 M208.900 62.687 C 209.505 62.778,210.495 62.778,211.100 62.687 C 211.705 62.595,211.210 62.520,210.000 62.520 C 208.790 62.520,208.295 62.595,208.900 62.687 M183.700 63.476 C 184.085 63.576,184.715 63.576,185.100 63.476 C 185.485 63.375,185.170 63.293,184.400 63.293 C 183.630 63.293,183.315 63.375,183.700 63.476 M215.700 63.476 C 216.085 63.576,216.715 63.576,217.100 63.476 C 217.485 63.375,217.170 63.293,216.400 63.293 C 215.630 63.293,215.315 63.375,215.700 63.476 M175.200 65.218 C 174.762 65.515,174.924 65.552,175.800 65.356 C 177.271 65.027,177.590 64.798,176.567 64.806 C 176.145 64.809,175.530 64.995,175.200 65.218 M223.633 64.944 C 223.725 65.023,224.340 65.208,225.000 65.356 C 225.876 65.552,226.038 65.515,225.600 65.218 C 225.060 64.853,223.232 64.598,223.633 64.944 M155.500 72.629 C 153.949 73.470,154.125 73.761,155.700 72.959 C 157.208 72.193,157.475 71.994,156.967 72.016 C 156.765 72.025,156.105 72.301,155.500 72.629 M145.846 78.196 C 142.854 80.266,142.660 80.737,145.600 78.794 C 148.676 76.761,148.634 76.794,148.167 76.822 C 147.965 76.834,146.921 77.452,145.846 78.196 M253.200 77.324 C 253.200 77.417,253.965 77.998,254.900 78.615 C 255.835 79.232,256.389 79.480,256.131 79.168 C 255.634 78.567,253.200 77.036,253.200 77.324 M265.000 86.251 C 268.523 89.736,272.729 93.500,270.600 91.261 C 269.280 89.873,267.300 88.000,266.200 87.099 C 265.100 86.197,264.560 85.815,265.000 86.251 M130.592 90.900 L 126.600 95.000 130.700 91.008 C 134.508 87.299,134.982 86.800,134.692 86.800 C 134.633 86.800,132.788 88.645,130.592 90.900 M272.800 94.125 C 272.800 94.194,273.385 94.779,274.100 95.425 L 275.400 96.600 274.225 95.300 C 273.130 94.088,272.800 93.816,272.800 94.125 M276.783 98.700 C 277.526 99.635,278.206 100.400,278.294 100.400 C 278.577 100.400,276.863 98.149,276.135 97.564 C 275.748 97.254,276.040 97.765,276.783 98.700 M279.600 102.400 C 280.070 103.060,280.544 103.600,280.654 103.600 C 280.764 103.600,280.470 103.060,280.000 102.400 C 279.530 101.740,279.056 101.200,278.946 101.200 C 278.836 101.200,279.130 101.740,279.600 102.400 M282.749 107.000 C 282.965 107.440,283.434 108.160,283.793 108.600 L 284.444 109.400 284.051 108.600 C 283.835 108.160,283.366 107.440,283.007 107.000 L 282.356 106.200 282.749 107.000 M115.000 111.200 C 114.659 111.860,114.469 112.400,114.579 112.400 C 114.689 112.400,115.059 111.860,115.400 111.200 C 115.741 110.540,115.931 110.000,115.821 110.000 C 115.711 110.000,115.341 110.540,115.000 111.200 M293.844 131.400 C 294.173 132.871,294.402 133.190,294.394 132.167 C 294.391 131.745,294.205 131.130,293.982 130.800 C 293.685 130.362,293.648 130.524,293.844 131.400 M105.049 136.215 C 104.912 136.573,104.818 137.256,104.841 137.733 C 104.867 138.281,105.003 138.086,105.210 137.203 C 105.560 135.716,105.465 135.133,105.049 136.215 M103.301 146.600 C 103.305 147.480,103.387 147.793,103.483 147.295 C 103.579 146.798,103.575 146.078,103.475 145.695 C 103.375 145.313,103.296 145.720,103.301 146.600 M297.309 148.400 C 297.309 149.390,297.387 149.795,297.482 149.300 C 297.578 148.805,297.578 147.995,297.482 147.500 C 297.387 147.005,297.309 147.410,297.309 148.400 M102.893 150.800 C 102.893 151.570,102.975 151.885,103.076 151.500 C 103.176 151.115,103.176 150.485,103.076 150.100 C 102.975 149.715,102.893 150.030,102.893 150.800 M297.701 153.800 C 297.705 154.680,297.787 154.993,297.883 154.495 C 297.979 153.998,297.975 153.278,297.875 152.895 C 297.775 152.513,297.696 152.920,297.701 153.800 M102.562 159.000 C 102.562 162.520,102.624 163.906,102.698 162.081 C 102.772 160.256,102.772 157.376,102.697 155.681 C 102.622 153.986,102.561 155.480,102.562 159.000 M297.714 164.200 C 297.717 165.300,297.795 165.703,297.887 165.095 C 297.979 164.486,297.977 163.586,297.882 163.095 C 297.787 162.603,297.711 163.100,297.714 164.200 M102.893 167.200 C 102.893 167.970,102.975 168.285,103.076 167.900 C 103.176 167.515,103.176 166.885,103.076 166.500 C 102.975 166.115,102.893 166.430,102.893 167.200 M297.314 169.800 C 297.317 170.900,297.395 171.303,297.487 170.695 C 297.579 170.086,297.577 169.186,297.482 168.695 C 297.387 168.203,297.311 168.700,297.314 169.800 M103.309 171.600 C 103.309 172.590,103.387 172.995,103.482 172.500 C 103.578 172.005,103.578 171.195,103.482 170.700 C 103.387 170.205,103.309 170.610,103.309 171.600 M296.493 175.600 C 296.493 176.370,296.575 176.685,296.676 176.300 C 296.776 175.915,296.776 175.285,296.676 174.900 C 296.575 174.515,296.493 174.830,296.493 175.600 M295.654 179.467 C 295.625 179.944,295.496 180.664,295.370 181.067 C 295.152 181.761,295.164 181.762,295.596 181.088 C 295.847 180.697,295.975 179.977,295.881 179.488 C 295.709 178.601,295.709 178.601,295.654 179.467 M104.806 180.433 C 104.809 180.965,104.989 181.670,105.206 182.000 C 105.482 182.422,105.523 182.185,105.342 181.200 C 105.025 179.475,104.798 179.149,104.806 180.433 M294.846 182.867 C 294.821 183.234,294.696 183.864,294.570 184.267 C 294.352 184.962,294.363 184.963,294.797 184.287 C 295.048 183.896,295.173 183.266,295.073 182.887 C 294.911 182.268,294.888 182.266,294.846 182.867 M286.200 204.800 C 285.859 205.460,285.669 206.000,285.779 206.000 C 285.889 206.000,286.259 205.460,286.600 204.800 C 286.941 204.140,287.131 203.600,287.021 203.600 C 286.911 203.600,286.541 204.140,286.200 204.800 M278.575 216.668 C 277.959 217.476,277.659 218.011,277.909 217.856 C 278.421 217.540,280.153 215.200,279.875 215.200 C 279.776 215.200,279.191 215.861,278.575 216.668 M274.378 221.900 L 273.000 223.400 274.500 222.022 C 275.896 220.738,276.184 220.400,275.878 220.400 C 275.812 220.400,275.137 221.075,274.378 221.900 M127.183 223.300 C 128.841 225.066,129.200 225.384,129.200 225.083 C 129.200 225.019,128.345 224.164,127.300 223.183 L 125.400 221.400 127.183 223.300 M269.591 227.100 L 266.200 230.600 269.700 227.209 C 272.951 224.059,273.382 223.600,273.091 223.600 C 273.031 223.600,271.456 225.175,269.591 227.100 M133.400 229.600 C 134.259 230.480,135.052 231.200,135.162 231.200 C 135.272 231.200,134.659 230.480,133.800 229.600 C 132.941 228.720,132.148 228.000,132.038 228.000 C 131.928 228.000,132.541 228.720,133.400 229.600 M264.575 231.700 L 263.400 233.000 264.700 231.825 C 265.415 231.179,266.000 230.594,266.000 230.525 C 266.000 230.216,265.670 230.488,264.575 231.700 M135.600 231.325 C 135.600 231.394,136.185 231.979,136.900 232.625 L 138.200 233.800 137.025 232.500 C 135.930 231.288,135.600 231.016,135.600 231.325 M138.544 233.909 C 138.860 234.421,141.200 236.153,141.200 235.875 C 141.200 235.776,140.539 235.191,139.732 234.575 C 138.924 233.959,138.389 233.659,138.544 233.909 M144.094 238.090 C 145.282 239.100,147.600 240.547,147.600 240.279 C 147.600 240.188,146.565 239.449,145.300 238.637 C 144.035 237.825,143.492 237.579,144.094 238.090 M254.457 239.208 C 252.085 240.766,251.835 241.126,253.923 239.976 C 254.870 239.454,255.837 238.796,256.072 238.514 C 256.659 237.806,256.460 237.891,254.457 239.208 M295.491 239.889 C 296.201 239.977,297.461 239.979,298.291 239.892 C 299.121 239.805,298.540 239.733,297.000 239.731 C 295.460 239.729,294.781 239.800,295.491 239.889 M100.300 240.296 C 101.675 240.374,103.925 240.374,105.300 240.296 C 106.675 240.218,105.550 240.154,102.800 240.154 C 100.050 240.154,98.925 240.218,100.300 240.296 M290.800 240.406 C 290.378 240.682,290.615 240.723,291.600 240.542 C 293.325 240.225,293.651 239.998,292.367 240.006 C 291.835 240.009,291.130 240.189,290.800 240.406 M92.200 241.210 C 91.666 241.447,91.998 241.486,93.200 241.327 C 94.190 241.196,95.075 241.024,95.167 240.944 C 95.514 240.643,92.964 240.872,92.200 241.210 M110.033 240.944 C 110.125 241.023,110.740 241.208,111.400 241.356 C 112.276 241.552,112.438 241.515,112.000 241.218 C 111.460 240.853,109.632 240.598,110.033 240.944 M305.233 240.943 C 305.325 241.021,306.030 241.201,306.800 241.342 C 307.785 241.523,308.022 241.482,307.600 241.206 C 307.058 240.850,304.837 240.603,305.233 240.943 M88.800 242.018 C 88.362 242.315,88.524 242.352,89.400 242.156 C 90.871 241.827,91.190 241.598,90.167 241.606 C 89.745 241.609,89.130 241.795,88.800 242.018 M249.500 242.229 C 248.005 243.040,248.096 243.378,249.600 242.600 C 250.260 242.259,250.800 241.894,250.800 241.790 C 250.800 241.532,250.757 241.547,249.500 242.229 M312.033 242.544 C 312.125 242.623,312.740 242.808,313.400 242.956 C 314.276 243.152,314.438 243.115,314.000 242.818 C 313.460 242.453,311.632 242.198,312.033 242.544 M76.800 246.200 C 76.250 246.514,75.980 246.772,76.200 246.772 C 76.420 246.772,77.050 246.514,77.600 246.200 C 78.150 245.886,78.420 245.628,78.200 245.628 C 77.980 245.628,77.350 245.886,76.800 246.200 M157.600 245.789 C 157.600 246.106,160.500 247.233,160.728 247.005 C 160.841 246.892,160.835 246.800,160.716 246.800 C 160.596 246.800,159.846 246.528,159.049 246.195 C 158.252 245.862,157.600 245.679,157.600 245.789 M277.493 247.014 C 276.672 247.572,276.000 248.115,276.000 248.220 C 276.000 248.325,276.720 247.935,277.600 247.353 C 278.997 246.428,279.470 246.000,279.093 246.000 C 279.034 246.000,278.314 246.456,277.493 247.014 M239.800 247.178 C 238.920 247.595,238.313 247.950,238.451 247.968 C 238.840 248.018,241.600 246.814,241.600 246.595 C 241.600 246.327,241.599 246.327,239.800 247.178 M71.900 248.629 C 70.405 249.440,70.496 249.778,72.000 249.000 C 72.660 248.659,73.200 248.294,73.200 248.190 C 73.200 247.932,73.157 247.947,71.900 248.629 M124.400 248.176 C 124.400 248.286,125.705 249.249,127.300 250.317 C 130.599 252.526,131.601 253.120,131.000 252.513 C 130.369 251.876,124.400 247.953,124.400 248.176 M330.025 249.729 C 330.148 249.869,331.408 250.712,332.825 251.604 C 334.241 252.495,334.883 252.790,334.252 252.259 C 333.177 251.354,329.534 249.174,330.025 249.729 M67.400 251.435 L 66.200 252.466 67.600 251.563 C 69.396 250.404,69.401 250.400,68.967 250.402 C 68.765 250.403,68.060 250.868,67.400 251.435 M172.800 251.582 C 173.130 251.805,173.745 251.991,174.167 251.994 C 175.190 252.002,174.871 251.773,173.400 251.444 C 172.524 251.248,172.362 251.285,172.800 251.582 M227.200 251.600 C 226.376 251.864,226.341 251.926,227.000 251.954 C 227.440 251.973,228.070 251.813,228.400 251.600 C 229.101 251.147,228.614 251.147,227.200 251.600 M220.600 253.200 C 219.493 253.482,219.477 253.509,220.400 253.547 C 220.950 253.569,221.670 253.413,222.000 253.200 C 222.681 252.760,222.329 252.760,220.600 253.200 M267.300 253.826 C 266.365 254.387,265.600 254.940,265.600 255.055 C 265.600 255.271,268.299 253.738,268.980 253.136 C 269.667 252.528,269.027 252.791,267.300 253.826 M62.567 255.029 L 61.000 256.458 62.700 255.162 C 64.253 253.978,64.632 253.600,64.267 253.600 C 64.193 253.600,63.428 254.243,62.567 255.029 M184.900 254.276 C 185.285 254.376,185.915 254.376,186.300 254.276 C 186.685 254.175,186.370 254.093,185.600 254.093 C 184.830 254.093,184.515 254.175,184.900 254.276 M215.300 254.276 C 215.685 254.376,216.315 254.376,216.700 254.276 C 217.085 254.175,216.770 254.093,216.000 254.093 C 215.230 254.093,214.915 254.175,215.300 254.276 M135.400 255.407 C 135.840 255.766,136.560 256.235,137.000 256.451 L 137.800 256.844 137.000 256.193 C 136.560 255.834,135.840 255.365,135.400 255.149 L 134.600 254.756 135.400 255.407 M191.091 255.089 C 191.801 255.177,193.061 255.179,193.891 255.092 C 194.721 255.005,194.140 254.933,192.600 254.931 C 191.060 254.929,190.381 255.000,191.091 255.089 M207.500 255.089 C 208.215 255.178,209.385 255.178,210.100 255.089 C 210.815 255.001,210.230 254.928,208.800 254.928 C 207.370 254.928,206.785 255.001,207.500 255.089 M341.000 258.000 C 342.083 259.100,343.060 260.000,343.170 260.000 C 343.280 260.000,342.483 259.100,341.400 258.000 C 340.317 256.900,339.340 256.000,339.230 256.000 C 339.120 256.000,339.917 256.900,341.000 258.000 M56.791 260.300 L 53.400 263.800 56.900 260.409 C 58.825 258.544,60.400 256.969,60.400 256.909 C 60.400 256.618,59.941 257.049,56.791 260.300 M259.900 258.229 C 258.405 259.040,258.496 259.378,260.000 258.600 C 260.660 258.259,261.200 257.894,261.200 257.790 C 261.200 257.532,261.157 257.547,259.900 258.229 M345.800 262.800 C 346.883 263.900,347.860 264.800,347.970 264.800 C 348.080 264.800,347.283 263.900,346.200 262.800 C 345.117 261.700,344.140 260.800,344.030 260.800 C 343.920 260.800,344.717 261.700,345.800 262.800 M352.175 270.532 C 352.791 271.339,353.376 272.000,353.475 272.000 C 353.753 272.000,352.021 269.660,351.509 269.344 C 351.259 269.189,351.559 269.724,352.175 270.532 M229.600 270.818 C 229.162 271.115,229.324 271.152,230.200 270.956 C 231.671 270.627,231.990 270.398,230.967 270.406 C 230.545 270.409,229.930 270.595,229.600 270.818 M171.633 271.344 C 171.725 271.423,172.340 271.608,173.000 271.756 C 173.876 271.952,174.038 271.915,173.600 271.618 C 173.060 271.253,171.232 270.998,171.633 271.344 M223.000 272.400 C 221.981 272.838,223.032 272.838,224.400 272.400 C 225.204 272.143,225.243 272.077,224.600 272.068 C 224.160 272.062,223.440 272.211,223.000 272.400 M183.300 273.876 C 183.685 273.976,184.315 273.976,184.700 273.876 C 185.085 273.775,184.770 273.693,184.000 273.693 C 183.230 273.693,182.915 273.775,183.300 273.876 M215.105 273.883 C 215.602 273.979,216.322 273.975,216.705 273.875 C 217.087 273.775,216.680 273.696,215.800 273.701 C 214.920 273.705,214.607 273.787,215.105 273.883 M189.900 274.689 C 190.615 274.778,191.785 274.778,192.500 274.689 C 193.215 274.601,192.630 274.528,191.200 274.528 C 189.770 274.528,189.185 274.601,189.900 274.689 M207.091 274.689 C 207.801 274.777,209.061 274.779,209.891 274.692 C 210.721 274.605,210.140 274.533,208.600 274.531 C 207.060 274.529,206.381 274.600,207.091 274.689 M197.300 275.097 C 198.785 275.174,201.215 275.174,202.700 275.097 C 204.185 275.020,202.970 274.957,200.000 274.957 C 197.030 274.957,195.815 275.020,197.300 275.097 M355.560 275.400 C 356.234 276.705,356.788 277.428,356.785 277.000 C 356.783 276.780,356.414 276.150,355.964 275.600 C 355.421 274.936,355.285 274.869,355.560 275.400 M40.579 283.241 C 39.792 284.804,39.214 286.147,39.294 286.227 C 39.373 286.307,40.103 285.028,40.916 283.386 C 41.729 281.744,42.307 280.400,42.202 280.400 C 42.096 280.400,41.366 281.678,40.579 283.241 M371.444 315.000 C 371.773 316.471,372.002 316.790,371.994 315.767 C 371.991 315.345,371.805 314.730,371.582 314.400 C 371.285 313.962,371.248 314.124,371.444 315.000 M28.249 316.615 C 28.112 316.973,28.015 317.566,28.034 317.933 C 28.053 318.300,28.227 318.069,28.421 317.420 C 28.798 316.158,28.665 315.533,28.249 316.615 M372.244 318.200 C 372.573 319.671,372.802 319.990,372.794 318.967 C 372.791 318.545,372.605 317.930,372.382 317.600 C 372.085 317.162,372.048 317.324,372.244 318.200 M27.449 319.815 C 27.312 320.173,27.215 320.766,27.234 321.133 C 27.253 321.500,27.427 321.269,27.621 320.620 C 27.998 319.358,27.865 318.733,27.449 319.815 M373.858 325.200 C 374.175 326.925,374.402 327.251,374.394 325.967 C 374.391 325.435,374.211 324.730,373.994 324.400 C 373.718 323.978,373.677 324.215,373.858 325.200 M24.101 337.400 C 24.105 338.280,24.187 338.593,24.283 338.095 C 24.379 337.598,24.375 336.878,24.275 336.495 C 24.175 336.113,24.096 336.520,24.101 337.400 M376.493 338.400 C 376.493 339.170,376.575 339.485,376.676 339.100 C 376.776 338.715,376.776 338.085,376.676 337.700 C 376.575 337.315,376.493 337.630,376.493 338.400 M23.301 343.000 C 23.305 343.880,23.387 344.193,23.483 343.695 C 23.579 343.198,23.575 342.478,23.475 342.095 C 23.375 341.713,23.296 342.120,23.301 343.000 M377.301 343.800 C 377.305 344.680,377.387 344.993,377.483 344.495 C 377.579 343.998,377.575 343.278,377.475 342.895 C 377.375 342.513,377.296 342.920,377.301 343.800 M22.520 350.000 C 22.520 351.210,22.595 351.705,22.687 351.100 C 22.778 350.495,22.778 349.505,22.687 348.900 C 22.595 348.295,22.520 348.790,22.520 350.000 M378.114 349.800 C 378.117 350.900,378.195 351.303,378.287 350.695 C 378.379 350.086,378.377 349.186,378.282 348.695 C 378.187 348.203,378.111 348.700,378.114 349.800 M378.931 358.200 C 378.933 359.740,379.005 360.321,379.092 359.491 C 379.179 358.661,379.177 357.401,379.089 356.691 C 379.000 355.981,378.929 356.660,378.931 358.200 M21.742 360.200 C 21.741 362.180,21.808 363.040,21.892 362.112 C 21.976 361.184,21.977 359.564,21.895 358.512 C 21.812 357.460,21.743 358.220,21.742 360.200 M379.320 365.600 C 379.320 366.810,379.395 367.305,379.487 366.700 C 379.578 366.095,379.578 365.105,379.487 364.500 C 379.395 363.895,379.320 364.390,379.320 365.600 M21.350 371.800 C 21.351 374.220,21.416 375.158,21.496 373.885 C 21.576 372.612,21.575 370.632,21.494 369.485 C 21.414 368.338,21.349 369.380,21.350 371.800 M379.757 374.800 C 379.757 377.770,379.820 378.985,379.897 377.500 C 379.974 376.015,379.974 373.585,379.897 372.100 C 379.820 370.615,379.757 371.830,379.757 374.800 M21.353 385.400 C 21.353 388.040,21.418 389.068,21.497 387.684 C 21.575 386.301,21.574 384.141,21.495 382.884 C 21.416 381.628,21.352 382.760,21.353 385.400 M379.314 384.200 C 379.317 385.300,379.395 385.703,379.487 385.095 C 379.579 384.486,379.577 383.586,379.482 383.095 C 379.387 382.603,379.311 383.100,379.314 384.200 M378.928 391.200 C 378.928 392.630,379.001 393.215,379.089 392.500 C 379.178 391.785,379.178 390.615,379.089 389.900 C 379.001 389.185,378.928 389.770,378.928 391.200 M21.734 397.200 C 21.734 398.850,21.805 399.525,21.891 398.700 C 21.978 397.875,21.978 396.525,21.891 395.700 C 21.805 394.875,21.734 395.550,21.734 397.200 M378.093 398.800 C 378.093 399.570,378.175 399.885,378.276 399.500 C 378.376 399.115,378.376 398.485,378.276 398.100 C 378.175 397.715,378.093 398.030,378.093 398.800 " stroke="none" fill="#8c8c8c" fill-rule="evenodd"></path><path id="path4" d="M194.433 61.747 C 194.525 61.828,198.290 61.973,202.800 62.071 C 207.310 62.168,209.920 62.121,208.600 61.967 C 206.103 61.675,194.141 61.490,194.433 61.747 M190.707 62.290 C 191.426 62.379,192.506 62.377,193.107 62.286 C 193.708 62.195,193.120 62.122,191.800 62.124 C 190.480 62.126,189.988 62.201,190.707 62.290 M185.000 62.800 C 183.930 63.072,183.908 63.105,184.800 63.105 C 185.350 63.105,186.340 62.968,187.000 62.800 C 188.070 62.528,188.092 62.495,187.200 62.495 C 186.650 62.495,185.660 62.632,185.000 62.800 M213.600 62.780 C 214.599 63.120,217.082 63.332,216.767 63.051 C 216.675 62.969,215.700 62.799,214.600 62.672 C 213.251 62.516,212.926 62.551,213.600 62.780 M180.400 63.600 C 179.596 63.857,179.557 63.923,180.200 63.932 C 180.640 63.938,181.360 63.789,181.800 63.600 C 182.819 63.162,181.768 63.162,180.400 63.600 M218.600 63.581 C 219.368 63.929,221.510 64.156,221.167 63.853 C 221.075 63.772,220.280 63.596,219.400 63.462 C 218.285 63.293,218.042 63.329,218.600 63.581 M176.800 64.400 C 175.996 64.657,175.957 64.723,176.600 64.732 C 177.040 64.738,177.760 64.589,178.200 64.400 C 179.219 63.962,178.168 63.962,176.800 64.400 M241.200 70.589 C 241.200 70.906,244.100 72.033,244.328 71.805 C 244.441 71.692,244.435 71.600,244.316 71.600 C 244.196 71.600,243.446 71.328,242.649 70.995 C 241.852 70.662,241.200 70.479,241.200 70.589 M244.800 72.141 C 244.800 72.408,248.490 74.443,248.663 74.271 C 248.740 74.193,247.903 73.639,246.802 73.040 C 245.701 72.440,244.800 72.036,244.800 72.141 M150.300 75.029 C 148.805 75.840,148.896 76.178,150.400 75.400 C 151.060 75.059,151.600 74.694,151.600 74.590 C 151.600 74.332,151.557 74.347,150.300 75.029 M139.600 82.434 L 137.800 84.065 139.700 82.584 C 141.366 81.286,141.859 80.797,141.500 80.801 C 141.445 80.802,140.590 81.536,139.600 82.434 M134.372 86.832 L 131.400 89.664 134.500 86.940 C 136.205 85.443,137.600 84.168,137.600 84.109 C 137.600 83.810,137.114 84.219,134.372 86.832 M263.200 84.125 C 263.200 84.194,263.785 84.779,264.500 85.425 L 265.800 86.600 264.625 85.300 C 263.530 84.088,263.200 83.816,263.200 84.125 M270.183 90.800 C 275.924 96.864,276.449 97.375,274.500 95.000 C 273.597 93.900,271.277 91.470,269.343 89.600 C 266.058 86.422,266.113 86.501,270.183 90.800 M127.575 93.500 C 125.122 96.097,123.826 97.600,124.039 97.600 C 124.137 97.600,125.440 96.250,126.934 94.600 C 129.948 91.272,130.381 90.529,127.575 93.500 M122.429 99.491 C 121.753 100.311,121.200 101.161,121.200 101.380 C 121.200 101.599,121.498 101.333,121.862 100.789 C 122.227 100.245,122.888 99.395,123.332 98.900 C 123.776 98.405,124.031 98.000,123.899 98.000 C 123.767 98.000,123.105 98.671,122.429 99.491 M277.591 99.188 C 278.057 99.841,278.642 100.502,278.891 100.656 C 279.141 100.811,278.841 100.276,278.225 99.468 C 276.888 97.715,276.384 97.492,277.591 99.188 M281.259 104.300 C 283.613 107.813,284.596 108.990,283.180 106.600 C 282.002 104.612,279.584 101.200,279.353 101.200 C 279.259 101.200,280.116 102.595,281.259 104.300 M285.400 110.800 C 285.741 111.460,286.111 112.000,286.221 112.000 C 286.331 112.000,286.141 111.460,285.800 110.800 C 285.459 110.140,285.089 109.600,284.979 109.600 C 284.869 109.600,285.059 110.140,285.400 110.800 M294.406 132.233 C 294.409 132.655,294.595 133.270,294.818 133.600 C 295.115 134.038,295.152 133.876,294.956 133.000 C 294.627 131.529,294.398 131.210,294.406 132.233 M105.029 135.029 C 104.881 135.615,104.838 136.172,104.932 136.266 C 105.027 136.360,105.224 135.958,105.371 135.371 C 105.519 134.785,105.562 134.228,105.468 134.134 C 105.373 134.040,105.176 134.442,105.029 135.029 M295.256 135.200 C 295.256 135.530,295.411 136.160,295.600 136.600 C 295.817 137.104,295.944 137.178,295.944 136.800 C 295.944 136.470,295.789 135.840,295.600 135.400 C 295.383 134.896,295.256 134.822,295.256 135.200 M104.250 138.450 C 103.917 140.117,104.240 140.440,104.600 138.800 C 104.752 138.109,104.793 137.459,104.691 137.358 C 104.589 137.256,104.391 137.747,104.250 138.450 M296.840 143.033 C 296.862 143.675,297.033 144.650,297.220 145.200 C 297.449 145.874,297.484 145.549,297.328 144.200 C 297.069 141.950,296.779 141.259,296.840 143.033 M102.613 148.613 C 102.457 150.071,102.414 151.347,102.516 151.450 C 102.619 151.552,102.831 150.444,102.987 148.987 C 103.143 147.529,103.186 146.253,103.084 146.150 C 102.981 146.048,102.769 147.156,102.613 148.613 M297.709 149.600 C 297.709 150.590,297.787 150.995,297.882 150.500 C 297.978 150.005,297.978 149.195,297.882 148.700 C 297.787 148.205,297.709 148.610,297.709 149.600 M298.109 153.200 C 298.109 154.190,298.187 154.595,298.282 154.100 C 298.378 153.605,298.378 152.795,298.282 152.300 C 298.187 151.805,298.109 152.210,298.109 153.200 M102.142 159.400 C 102.141 161.380,102.208 162.240,102.292 161.312 C 102.376 160.384,102.377 158.764,102.295 157.712 C 102.212 156.660,102.143 157.420,102.142 159.400 M297.800 166.800 C 297.641 168.805,297.598 170.531,297.703 170.636 C 297.808 170.742,298.023 169.186,298.180 167.180 C 298.337 165.174,298.381 163.447,298.277 163.344 C 298.173 163.240,297.959 164.795,297.800 166.800 M102.493 167.600 C 102.493 168.370,102.575 168.685,102.676 168.300 C 102.776 167.915,102.776 167.285,102.676 166.900 C 102.575 166.515,102.493 166.830,102.493 167.600 M102.901 170.600 C 102.905 171.480,102.987 171.793,103.083 171.295 C 103.179 170.798,103.175 170.078,103.075 169.695 C 102.975 169.313,102.896 169.720,102.901 170.600 M297.000 174.000 C 296.846 174.910,296.804 175.738,296.907 175.840 C 297.010 175.943,297.213 175.277,297.360 174.360 C 297.507 173.443,297.548 172.615,297.453 172.520 C 297.358 172.424,297.154 173.090,297.000 174.000 M296.200 178.400 C 296.048 179.091,296.007 179.741,296.109 179.842 C 296.211 179.944,296.409 179.453,296.550 178.750 C 296.883 177.083,296.560 176.760,296.200 178.400 M104.244 179.400 C 104.573 180.871,104.802 181.190,104.794 180.167 C 104.791 179.745,104.605 179.130,104.382 178.800 C 104.085 178.362,104.048 178.524,104.244 179.400 M295.400 182.000 C 295.248 182.691,295.207 183.341,295.309 183.442 C 295.411 183.544,295.609 183.053,295.750 182.350 C 296.083 180.683,295.760 180.360,295.400 182.000 M104.856 182.000 C 104.856 182.330,105.011 182.960,105.200 183.400 C 105.417 183.904,105.544 183.978,105.544 183.600 C 105.544 183.270,105.389 182.640,105.200 182.200 C 104.983 181.696,104.856 181.622,104.856 182.000 M286.200 205.600 C 285.859 206.260,285.669 206.800,285.779 206.800 C 285.889 206.800,286.259 206.260,286.600 205.600 C 286.941 204.940,287.131 204.400,287.021 204.400 C 286.911 204.400,286.541 204.940,286.200 205.600 M113.960 205.400 C 114.634 206.705,115.188 207.428,115.185 207.000 C 115.183 206.780,114.814 206.150,114.364 205.600 C 113.821 204.936,113.685 204.869,113.960 205.400 M284.614 208.235 C 284.241 208.804,284.005 209.338,284.089 209.422 C 284.173 209.507,284.558 209.041,284.944 208.388 C 285.806 206.928,285.548 206.809,284.614 208.235 M115.805 208.565 C 116.189 209.206,116.859 210.331,117.292 211.065 C 117.725 211.799,118.163 212.400,118.265 212.400 C 118.544 212.400,116.879 209.543,115.933 208.400 L 115.105 207.400 115.805 208.565 M119.616 214.563 C 120.368 215.609,121.156 216.573,121.367 216.703 C 121.578 216.833,121.135 216.084,120.384 215.037 C 119.632 213.991,118.844 213.027,118.633 212.897 C 118.422 212.767,118.865 213.516,119.616 214.563 M280.915 214.100 C 279.181 216.367,278.266 217.720,278.609 217.513 C 279.081 217.227,281.737 213.600,281.474 213.600 C 281.377 213.600,281.126 213.825,280.915 214.100 M275.226 221.322 L 274.251 222.600 275.526 221.425 C 276.851 220.203,277.003 219.985,276.500 220.022 C 276.335 220.034,275.762 220.619,275.226 221.322 M124.800 221.325 C 124.800 221.394,125.385 221.979,126.100 222.625 L 127.400 223.800 126.225 222.500 C 125.130 221.288,124.800 221.016,124.800 221.325 M268.600 228.310 C 265.520 231.320,264.080 232.855,265.400 231.721 C 267.821 229.640,274.745 222.784,274.391 222.818 C 274.286 222.828,271.680 225.300,268.600 228.310 M130.193 227.193 C 131.048 228.069,131.823 228.711,131.914 228.619 C 132.119 228.414,129.340 225.600,128.932 225.600 C 128.770 225.600,129.337 226.317,130.193 227.193 M135.574 231.899 C 136.798 233.054,137.949 233.999,138.131 233.999 C 138.313 234.000,137.863 233.517,137.131 232.928 C 136.399 232.338,135.248 231.393,134.574 230.828 C 133.900 230.262,134.350 230.745,135.574 231.899 M138.800 234.525 C 138.800 234.624,139.461 235.209,140.268 235.825 C 141.076 236.441,141.611 236.741,141.456 236.491 C 141.140 235.979,138.800 234.247,138.800 234.525 M293.026 239.547 C 292.380 239.686,294.254 239.800,297.191 239.801 C 300.419 239.802,301.911 239.692,300.965 239.524 C 299.068 239.187,294.639 239.200,293.026 239.547 M101.113 239.895 C 102.276 239.976,104.076 239.976,105.113 239.893 C 106.151 239.811,105.200 239.745,103.000 239.746 C 100.800 239.747,99.951 239.814,101.113 239.895 M94.600 240.400 C 93.522 240.674,93.502 240.706,94.400 240.713 C 94.950 240.717,95.850 240.576,96.400 240.400 C 97.744 239.969,96.292 239.969,94.600 240.400 M90.800 241.200 C 89.976 241.464,89.941 241.526,90.600 241.554 C 91.040 241.573,91.670 241.413,92.000 241.200 C 92.701 240.747,92.214 240.747,90.800 241.200 M308.000 241.182 C 308.330 241.405,308.945 241.591,309.367 241.594 C 310.390 241.602,310.071 241.373,308.600 241.044 C 307.724 240.848,307.562 240.885,308.000 241.182 M87.400 242.000 C 86.896 242.217,86.822 242.344,87.200 242.344 C 87.530 242.344,88.160 242.189,88.600 242.000 C 89.104 241.783,89.178 241.656,88.800 241.656 C 88.470 241.656,87.840 241.811,87.400 242.000 M311.200 241.982 C 311.530 242.205,312.145 242.391,312.567 242.394 C 313.590 242.402,313.271 242.173,311.800 241.844 C 310.924 241.648,310.762 241.685,311.200 241.982 M247.200 244.036 C 246.536 244.579,246.469 244.715,247.000 244.440 C 248.305 243.766,249.028 243.212,248.600 243.215 C 248.380 243.217,247.750 243.586,247.200 244.036 M155.811 245.334 C 156.696 245.932,158.000 246.458,158.000 246.217 C 158.000 246.037,155.598 244.800,155.250 244.800 C 155.124 244.800,155.377 245.040,155.811 245.334 M121.697 245.833 C 121.840 246.064,123.092 247.034,124.478 247.988 C 125.865 248.942,126.730 249.455,126.400 249.128 C 125.471 248.208,121.404 245.359,121.697 245.833 M322.800 245.789 C 322.800 246.106,325.700 247.233,325.928 247.005 C 326.041 246.892,326.035 246.800,325.916 246.800 C 325.796 246.800,325.046 246.528,324.249 246.195 C 323.452 245.862,322.800 245.679,322.800 245.789 M71.100 248.629 C 69.605 249.440,69.696 249.778,71.200 249.000 C 71.860 248.659,72.400 248.294,72.400 248.190 C 72.400 247.932,72.357 247.947,71.100 248.629 M328.800 248.764 C 329.350 249.214,329.980 249.583,330.200 249.585 C 330.628 249.588,329.905 249.034,328.600 248.360 C 328.069 248.085,328.136 248.221,328.800 248.764 M127.200 249.695 C 127.200 249.947,132.710 253.600,133.090 253.600 C 133.255 253.600,132.492 253.000,131.395 252.266 C 127.955 249.965,127.200 249.502,127.200 249.695 M332.000 250.521 C 332.000 250.612,333.035 251.351,334.300 252.163 C 335.565 252.975,336.108 253.221,335.506 252.710 C 334.318 251.700,332.000 250.253,332.000 250.521 M170.833 251.344 C 170.925 251.423,171.540 251.608,172.200 251.756 C 173.076 251.952,173.238 251.915,172.800 251.618 C 172.260 251.253,170.432 250.998,170.833 251.344 M225.600 252.418 C 225.162 252.715,225.324 252.752,226.200 252.556 C 227.671 252.227,227.990 251.998,226.967 252.006 C 226.545 252.009,225.930 252.195,225.600 252.418 M62.800 254.434 L 61.000 256.065 62.900 254.584 C 64.566 253.286,65.059 252.797,64.700 252.801 C 64.645 252.802,63.790 253.536,62.800 254.434 M177.600 253.200 C 178.968 253.638,180.019 253.638,179.000 253.200 C 178.560 253.011,177.840 252.862,177.400 252.868 C 176.757 252.877,176.796 252.943,177.600 253.200 M222.400 253.218 C 221.962 253.515,222.124 253.552,223.000 253.356 C 224.471 253.027,224.790 252.798,223.767 252.806 C 223.345 252.809,222.730 252.995,222.400 253.218 M180.433 253.747 C 180.525 253.828,181.320 254.004,182.200 254.138 C 183.315 254.307,183.558 254.271,183.000 254.019 C 182.232 253.671,180.090 253.444,180.433 253.747 M265.496 254.550 C 263.575 255.731,263.038 256.289,264.600 255.481 C 265.854 254.833,267.545 253.626,267.200 253.625 C 267.090 253.625,266.323 254.041,265.496 254.550 M184.833 254.550 C 184.925 254.632,186.080 254.800,187.400 254.923 C 188.978 255.070,189.389 255.035,188.600 254.820 C 187.366 254.485,184.536 254.282,184.833 254.550 M213.000 254.800 C 211.337 255.223,212.974 255.242,215.000 254.823 C 216.345 254.545,216.409 254.492,215.400 254.493 C 214.740 254.494,213.660 254.632,213.000 254.800 M193.111 255.493 C 194.051 255.578,195.491 255.577,196.311 255.491 C 197.130 255.405,196.360 255.336,194.600 255.337 C 192.840 255.339,192.170 255.409,193.111 255.493 M205.891 255.489 C 206.601 255.577,207.861 255.579,208.691 255.492 C 209.521 255.405,208.940 255.333,207.400 255.331 C 205.860 255.329,205.181 255.400,205.891 255.489 M338.800 255.325 C 338.800 255.394,339.385 255.979,340.100 256.625 L 341.400 257.800 340.225 256.500 C 339.130 255.288,338.800 255.016,338.800 255.325 M199.500 255.893 C 200.435 255.977,201.965 255.977,202.900 255.893 C 203.835 255.809,203.070 255.740,201.200 255.740 C 199.330 255.740,198.565 255.809,199.500 255.893 M56.592 260.100 L 52.600 264.200 56.700 260.208 C 60.508 256.499,60.982 256.000,60.692 256.000 C 60.633 256.000,58.788 257.845,56.592 260.100 M261.800 256.800 C 261.140 257.237,260.780 257.592,261.000 257.588 C 261.401 257.582,263.576 256.023,263.200 256.012 C 263.090 256.008,262.460 256.363,261.800 256.800 M138.800 256.979 C 138.800 257.089,139.340 257.459,140.000 257.800 C 140.660 258.141,141.200 258.331,141.200 258.221 C 141.200 258.111,140.660 257.741,140.000 257.400 C 139.340 257.059,138.800 256.869,138.800 256.979 M259.100 258.229 C 257.605 259.040,257.696 259.378,259.200 258.600 C 259.860 258.259,260.400 257.894,260.400 257.790 C 260.400 257.532,260.357 257.547,259.100 258.229 M343.200 259.367 C 343.200 259.788,344.405 260.928,344.621 260.712 C 344.722 260.611,344.444 260.202,344.002 259.802 C 343.561 259.403,343.200 259.207,343.200 259.367 M149.200 262.600 C 149.750 262.914,150.380 263.172,150.600 263.172 C 150.820 263.172,150.550 262.914,150.000 262.600 C 149.450 262.286,148.820 262.028,148.600 262.028 C 148.380 262.028,148.650 262.286,149.200 262.600 M348.197 264.900 C 349.272 266.165,350.223 267.200,350.310 267.200 C 350.583 267.200,348.129 264.236,347.164 263.400 C 346.656 262.960,347.121 263.635,348.197 264.900 M51.144 265.900 C 49.993 267.289,49.506 268.000,49.704 268.000 C 49.814 268.000,50.386 267.370,50.973 266.600 C 52.063 265.171,52.195 264.632,51.144 265.900 M48.744 269.100 C 47.593 270.489,47.106 271.200,47.304 271.200 C 47.414 271.200,47.986 270.570,48.573 269.800 C 49.663 268.371,49.795 267.832,48.744 269.100 M354.443 273.300 C 356.721 276.721,358.207 278.689,357.387 277.200 C 356.634 275.832,352.364 269.600,352.179 269.600 C 352.069 269.600,353.088 271.265,354.443 273.300 M228.200 270.800 C 227.696 271.017,227.622 271.144,228.000 271.144 C 228.330 271.144,228.960 270.989,229.400 270.800 C 229.904 270.583,229.978 270.456,229.600 270.456 C 229.270 270.456,228.640 270.611,228.200 270.800 M173.800 271.600 C 174.240 271.789,174.960 271.938,175.400 271.932 C 176.043 271.923,176.004 271.857,175.200 271.600 C 173.832 271.162,172.781 271.162,173.800 271.600 M177.400 272.400 C 177.840 272.589,178.560 272.738,179.000 272.732 C 179.643 272.723,179.604 272.657,178.800 272.400 C 177.432 271.962,176.381 271.962,177.400 272.400 M221.200 272.400 C 220.396 272.657,220.357 272.723,221.000 272.732 C 221.440 272.738,222.160 272.589,222.600 272.400 C 223.619 271.962,222.568 271.962,221.200 272.400 M181.400 273.190 C 182.164 273.528,184.714 273.757,184.367 273.456 C 184.275 273.376,183.390 273.204,182.400 273.073 C 181.198 272.914,180.866 272.953,181.400 273.190 M216.600 273.200 C 215.522 273.474,215.502 273.506,216.400 273.513 C 216.950 273.517,217.850 273.376,218.400 273.200 C 219.744 272.769,218.292 272.769,216.600 273.200 M210.200 274.000 L 208.200 274.274 210.000 274.297 C 210.990 274.310,212.250 274.176,212.800 274.000 C 214.044 273.601,213.106 273.601,210.200 274.000 M44.752 274.900 C 44.490 275.395,44.015 276.250,43.696 276.800 C 43.139 277.759,43.143 277.767,43.788 277.000 C 44.586 276.052,45.705 274.000,45.424 274.000 C 45.316 274.000,45.014 274.405,44.752 274.900 M188.905 274.287 C 189.514 274.379,190.414 274.377,190.905 274.282 C 191.397 274.187,190.900 274.111,189.800 274.114 C 188.700 274.117,188.297 274.195,188.905 274.287 M197.516 274.697 C 198.899 274.775,201.059 274.774,202.316 274.695 C 203.572 274.616,202.440 274.552,199.800 274.553 C 197.160 274.553,196.132 274.618,197.516 274.697 M358.200 279.200 C 358.541 279.860,358.911 280.400,359.021 280.400 C 359.131 280.400,358.941 279.860,358.600 279.200 C 358.259 278.540,357.889 278.000,357.779 278.000 C 357.669 278.000,357.859 278.540,358.200 279.200 M41.400 280.800 C 41.059 281.460,40.869 282.000,40.979 282.000 C 41.089 282.000,41.459 281.460,41.800 280.800 C 42.141 280.140,42.331 279.600,42.221 279.600 C 42.111 279.600,41.741 280.140,41.400 280.800 M371.256 312.800 C 371.256 313.130,371.411 313.760,371.600 314.200 C 371.817 314.704,371.944 314.778,371.944 314.400 C 371.944 314.070,371.789 313.440,371.600 313.000 C 371.383 312.496,371.256 312.422,371.256 312.800 M372.056 316.000 C 372.056 316.330,372.211 316.960,372.400 317.400 C 372.617 317.904,372.744 317.978,372.744 317.600 C 372.744 317.270,372.589 316.640,372.400 316.200 C 372.183 315.696,372.056 315.622,372.056 316.000 M27.450 318.450 C 27.117 320.117,27.440 320.440,27.800 318.800 C 27.952 318.109,27.993 317.459,27.891 317.358 C 27.789 317.256,27.591 317.747,27.450 318.450 M372.856 319.200 C 372.856 319.530,373.011 320.160,373.200 320.600 C 373.417 321.104,373.544 321.178,373.544 320.800 C 373.544 320.470,373.389 319.840,373.200 319.400 C 372.983 318.896,372.856 318.822,372.856 319.200 M373.606 322.633 C 373.609 323.055,373.795 323.670,374.018 324.000 C 374.315 324.438,374.352 324.276,374.156 323.400 C 373.827 321.929,373.598 321.610,373.606 322.633 M26.054 324.667 C 26.025 325.144,25.896 325.864,25.770 326.267 C 25.552 326.961,25.564 326.962,25.996 326.288 C 26.247 325.897,26.375 325.177,26.281 324.688 C 26.109 323.801,26.109 323.801,26.054 324.667 M374.468 326.200 C 374.462 326.640,374.611 327.360,374.800 327.800 C 375.238 328.819,375.238 327.768,374.800 326.400 C 374.543 325.596,374.477 325.557,374.468 326.200 M25.050 329.250 C 24.717 330.917,25.040 331.240,25.400 329.600 C 25.552 328.909,25.593 328.259,25.491 328.158 C 25.389 328.056,25.191 328.547,25.050 329.250 M375.228 330.033 C 375.244 330.565,375.419 331.360,375.619 331.800 C 375.871 332.358,375.907 332.115,375.738 331.000 C 375.455 329.143,375.187 328.636,375.228 330.033 M24.449 333.000 C 24.416 333.440,24.296 334.250,24.183 334.800 L 23.977 335.800 24.406 334.819 C 24.642 334.279,24.761 333.469,24.672 333.019 C 24.513 332.221,24.507 332.221,24.449 333.000 M376.028 334.433 C 376.044 334.965,376.219 335.760,376.419 336.200 C 376.671 336.758,376.707 336.515,376.538 335.400 C 376.255 333.543,375.987 333.036,376.028 334.433 M23.693 338.000 C 23.693 338.770,23.775 339.085,23.876 338.700 C 23.976 338.315,23.976 337.685,23.876 337.300 C 23.775 336.915,23.693 337.230,23.693 338.000 M376.828 339.033 C 376.844 339.675,377.016 340.560,377.210 341.000 C 377.447 341.534,377.486 341.202,377.327 340.000 C 377.046 337.880,376.788 337.380,376.828 339.033 M22.901 343.800 C 22.905 344.680,22.987 344.993,23.083 344.495 C 23.179 343.998,23.175 343.278,23.075 342.895 C 22.975 342.513,22.896 342.920,22.901 343.800 M377.693 344.400 C 377.693 345.170,377.775 345.485,377.876 345.100 C 377.976 344.715,377.976 344.085,377.876 343.700 C 377.775 343.315,377.693 343.630,377.693 344.400 M21.852 352.353 C 21.698 354.197,21.652 355.785,21.749 355.883 C 22.000 356.133,22.526 350.177,22.310 349.532 C 22.212 349.239,22.006 350.509,21.852 352.353 M378.423 350.433 C 378.436 351.185,378.605 352.520,378.798 353.400 C 379.069 354.630,379.098 354.352,378.926 352.200 C 378.687 349.220,378.385 348.158,378.423 350.433 M379.247 359.433 C 379.272 360.735,379.435 362.970,379.609 364.400 C 379.829 366.216,379.860 365.553,379.715 362.200 C 379.498 357.235,379.164 355.259,379.247 359.433 M21.340 362.000 C 21.340 363.870,21.409 364.635,21.493 363.700 C 21.577 362.765,21.577 361.235,21.493 360.300 C 21.409 359.365,21.340 360.130,21.340 362.000 M20.955 370.600 C 20.956 373.460,21.020 374.578,21.097 373.083 C 21.174 371.589,21.174 369.249,21.096 367.883 C 21.018 366.518,20.955 367.740,20.955 370.600 M20.955 386.600 C 20.956 389.460,21.020 390.578,21.097 389.083 C 21.174 387.589,21.174 385.249,21.096 383.883 C 21.018 382.518,20.955 383.740,20.955 386.600 M379.720 384.800 C 379.720 386.010,379.795 386.505,379.887 385.900 C 379.978 385.295,379.978 384.305,379.887 383.700 C 379.795 383.095,379.720 383.590,379.720 384.800 M379.328 389.600 C 379.328 391.030,379.401 391.615,379.489 390.900 C 379.578 390.185,379.578 389.015,379.489 388.300 C 379.401 387.585,379.328 388.170,379.328 389.600 M21.348 396.000 C 21.348 398.310,21.414 399.255,21.495 398.100 C 21.576 396.945,21.576 395.055,21.495 393.900 C 21.414 392.745,21.348 393.690,21.348 396.000 M378.509 398.400 C 378.509 399.390,378.587 399.795,378.682 399.300 C 378.778 398.805,378.778 397.995,378.682 397.500 C 378.587 397.005,378.509 397.410,378.509 398.400 " stroke="none" fill="#b0b0b0" fill-rule="evenodd"></path></g></svg>